<?xml version="1.0" encoding="utf-8"?>
<!-- Generator: Adobe Illustrator 23.0.3, SVG Export Plug-In . SVG Version: 6.00 Build 0)  -->
<svg version="1.1" id="Layer_1" xmlns="http://www.w3.org/2000/svg" xmlns:xlink="http://www.w3.org/1999/xlink" x="0px" y="0px"
	 viewBox="0 0 57 57" style="enable-background:new 0 0 57 57;" xml:space="preserve">
<style type="text/css">
	.st0{fill:#000D04;}
	.st1{fill:#000604;}
	.st2{fill:#0300A3;}
</style>
<g id="Logo_1_" transform="translate(-115 -38)">
	<circle id="Ellipse_58_1_" class="st0" cx="143.9" cy="66.5" r="23.5"/>
	
		<image style="overflow:visible;opacity:0.22;" width="180" height="180" xlink:href="C:\Desktop\Thiết kế không tên.png"  transform="matrix(0.5261 0 0 0.5261 98.1884 22.5561)">
	</image>
	<g>
		<g>
			<g>
				<path class="st1" d="M128,62.6c0.4-0.1,1-0.1,1.6-0.1c0.8,0,1.5,0.2,1.9,0.6c0.4,0.3,0.6,0.8,0.6,1.4c0,0.6-0.2,1.1-0.5,1.4
					c-0.5,0.5-1.2,0.7-2,0.7c-0.3,0-0.5,0-0.7-0.1v2.7H128V62.6z M128.9,65.8c0.2,0,0.4,0.1,0.7,0.1c1,0,1.7-0.5,1.7-1.4
					c0-0.9-0.6-1.3-1.6-1.3c-0.4,0-0.7,0-0.8,0.1V65.8z"/>
				<path class="st1" d="M133.2,62.1h0.9v3h0c0.1-0.2,0.4-0.5,0.6-0.6c0.3-0.1,0.6-0.2,0.9-0.2c0.6,0,1.7,0.4,1.7,2v2.8h-0.9v-2.7
					c0-0.8-0.3-1.4-1.1-1.4c-0.6,0-1,0.4-1.2,0.9c0,0.1-0.1,0.2-0.1,0.4v2.9h-0.9V62.1z"/>
				<path class="st1" d="M143,66.7c0,1.8-1.2,2.5-2.4,2.5c-1.3,0-2.3-0.9-2.3-2.5c0-1.6,1-2.5,2.4-2.5C142.1,64.2,143,65.2,143,66.7
					z M139.2,66.8c0,1,0.6,1.8,1.5,1.8c0.8,0,1.5-0.8,1.5-1.9c0-0.8-0.4-1.8-1.4-1.8C139.6,64.9,139.2,65.8,139.2,66.8z"/>
				<path class="st1" d="M144.6,66.9c0,1.2,0.8,1.7,1.6,1.7c0.6,0,1-0.1,1.3-0.2l0.1,0.6c-0.3,0.1-0.8,0.3-1.6,0.3
					c-1.5,0-2.4-1-2.4-2.4s0.8-2.6,2.2-2.6c1.6,0,2,1.4,2,2.3c0,0.2,0,0.3,0,0.4H144.6z M147.1,66.3c0-0.6-0.2-1.4-1.2-1.4
					c-0.9,0-1.3,0.8-1.3,1.4H147.1z"/>
				<path class="st1" d="M149,65.7c0-0.5,0-0.9,0-1.3h0.8l0,0.8h0c0.2-0.5,0.8-0.9,1.6-0.9c0.7,0,1.7,0.4,1.7,2v2.9h-0.9v-2.8
					c0-0.8-0.3-1.4-1.1-1.4c-0.6,0-1,0.4-1.2,0.9c0,0.1-0.1,0.3-0.1,0.4v2.9H149V65.7z"/>
				<path class="st1" d="M155.5,63c0,0.3-0.2,0.5-0.6,0.5c-0.3,0-0.5-0.2-0.5-0.5c0-0.3,0.2-0.5,0.5-0.5
					C155.3,62.5,155.5,62.7,155.5,63z M154.5,69.1v-4.8h0.9v4.8H154.5z"/>
				<path class="st1" d="M157.2,64.4l0.7,1c0.2,0.3,0.3,0.5,0.5,0.8h0c0.2-0.3,0.3-0.5,0.5-0.8l0.7-1h0.9l-1.6,2.3l1.7,2.5h-1
					l-0.7-1.1c-0.2-0.3-0.3-0.5-0.5-0.8h0c-0.2,0.3-0.3,0.5-0.5,0.8l-0.7,1.1h-1l1.7-2.4l-1.6-2.3H157.2z"/>
			</g>
			<g>
				<path class="st2" d="M128.9,62.5c0.4-0.1,1-0.1,1.6-0.1c0.8,0,1.5,0.2,1.9,0.6c0.4,0.3,0.6,0.8,0.6,1.4c0,0.6-0.2,1.1-0.5,1.4
					c-0.5,0.5-1.2,0.7-2,0.7c-0.3,0-0.5,0-0.7-0.1V69h-0.9V62.5z M129.7,65.7c0.2,0,0.4,0.1,0.7,0.1c1,0,1.7-0.5,1.7-1.4
					c0-0.9-0.6-1.3-1.6-1.3c-0.4,0-0.7,0-0.8,0.1V65.7z"/>
				<path class="st2" d="M134,62h0.9v3h0c0.1-0.2,0.4-0.5,0.6-0.6c0.3-0.1,0.6-0.2,0.9-0.2c0.6,0,1.7,0.4,1.7,2V69h-0.9v-2.7
					c0-0.8-0.3-1.4-1.1-1.4c-0.6,0-1,0.4-1.2,0.9c0,0.1-0.1,0.2-0.1,0.4V69H134V62z"/>
				<path class="st2" d="M143.9,66.6c0,1.8-1.2,2.5-2.4,2.5c-1.3,0-2.3-0.9-2.3-2.5c0-1.6,1-2.5,2.4-2.5
					C142.9,64.2,143.9,65.1,143.9,66.6z M140.1,66.7c0,1,0.6,1.8,1.5,1.8c0.8,0,1.5-0.8,1.5-1.9c0-0.8-0.4-1.8-1.4-1.8
					C140.5,64.8,140.1,65.8,140.1,66.7z"/>
				<path class="st2" d="M145.4,66.8c0,1.2,0.8,1.7,1.6,1.7c0.6,0,1-0.1,1.3-0.2l0.1,0.6c-0.3,0.1-0.8,0.3-1.6,0.3
					c-1.5,0-2.4-1-2.4-2.4c0-1.4,0.8-2.6,2.2-2.6c1.6,0,2,1.4,2,2.3c0,0.2,0,0.3,0,0.4H145.4z M148,66.2c0-0.6-0.2-1.4-1.2-1.4
					c-0.9,0-1.3,0.8-1.3,1.4H148z"/>
				<path class="st2" d="M149.9,65.6c0-0.5,0-0.9,0-1.3h0.8l0,0.8h0c0.2-0.5,0.8-0.9,1.6-0.9c0.7,0,1.7,0.4,1.7,2V69h-0.9v-2.8
					c0-0.8-0.3-1.4-1.1-1.4c-0.6,0-1,0.4-1.2,0.9c0,0.1-0.1,0.3-0.1,0.4V69h-0.9V65.6z"/>
				<path class="st2" d="M156.4,62.9c0,0.3-0.2,0.5-0.6,0.5c-0.3,0-0.5-0.2-0.5-0.5c0-0.3,0.2-0.5,0.5-0.5
					C156.1,62.4,156.4,62.6,156.4,62.9z M155.4,69v-4.8h0.9V69H155.4z"/>
				<path class="st2" d="M158.1,64.3l0.7,1c0.2,0.3,0.3,0.5,0.5,0.8h0c0.2-0.3,0.3-0.5,0.5-0.8l0.7-1h0.9l-1.6,2.3l1.7,2.5h-1
					l-0.7-1.1c-0.2-0.3-0.3-0.5-0.5-0.8h0c-0.2,0.3-0.3,0.5-0.5,0.8L158,69h-1l1.7-2.4l-1.6-2.3H158.1z"/>
			</g>
		</g>
	</g>
</g>
<g id="Logo" transform="translate(-115 -38)">
	
		<image style="overflow:visible;opacity:0.75;" width="78" height="78" xlink:href="7E10E1E0.png"  transform="matrix(1 0 0 1 112 34)">
	</image>
	<g>
		<g>
			<circle id="Ellipse_58_13_" class="st0" cx="143.9" cy="66.5" r="23.5"/>
			
				<image style="overflow:visible;opacity:0.22;" width="180" height="180" xlink:href="C:\Desktop\Thiết kế không tên.png"  transform="matrix(0.5261 0 0 0.5261 98.1884 22.5561)">
			</image>
			<g>
				<g>
					<g>
						<path class="st1" d="M128,62.6c0.4-0.1,1-0.1,1.6-0.1c0.8,0,1.5,0.2,1.9,0.6c0.4,0.3,0.6,0.8,0.6,1.4c0,0.6-0.2,1.1-0.5,1.4
							c-0.5,0.5-1.2,0.7-2,0.7c-0.3,0-0.5,0-0.7-0.1v2.7H128V62.6z M128.9,65.8c0.2,0,0.4,0.1,0.7,0.1c1,0,1.7-0.5,1.7-1.4
							c0-0.9-0.6-1.3-1.6-1.3c-0.4,0-0.7,0-0.8,0.1V65.8z"/>
						<path class="st1" d="M133.2,62.1h0.9v3h0c0.1-0.2,0.4-0.5,0.6-0.6c0.3-0.1,0.6-0.2,0.9-0.2c0.6,0,1.7,0.4,1.7,2v2.8h-0.9v-2.7
							c0-0.8-0.3-1.4-1.1-1.4c-0.6,0-1,0.4-1.2,0.9c0,0.1-0.1,0.2-0.1,0.4v2.9h-0.9V62.1z"/>
						<path class="st1" d="M143,66.7c0,1.8-1.2,2.5-2.4,2.5c-1.3,0-2.3-0.9-2.3-2.5c0-1.6,1-2.5,2.4-2.5
							C142.1,64.2,143,65.2,143,66.7z M139.2,66.8c0,1,0.6,1.8,1.5,1.8c0.8,0,1.5-0.8,1.5-1.9c0-0.8-0.4-1.8-1.4-1.8
							C139.6,64.9,139.2,65.8,139.2,66.8z"/>
						<path class="st1" d="M144.6,66.9c0,1.2,0.8,1.7,1.6,1.7c0.6,0,1-0.1,1.3-0.2l0.1,0.6c-0.3,0.1-0.8,0.3-1.6,0.3
							c-1.5,0-2.4-1-2.4-2.4s0.8-2.6,2.2-2.6c1.6,0,2,1.4,2,2.3c0,0.2,0,0.3,0,0.4H144.6z M147.1,66.3c0-0.6-0.2-1.4-1.2-1.4
							c-0.9,0-1.3,0.8-1.3,1.4H147.1z"/>
						<path class="st1" d="M149,65.7c0-0.5,0-0.9,0-1.3h0.8l0,0.8h0c0.2-0.5,0.8-0.9,1.6-0.9c0.7,0,1.7,0.4,1.7,2v2.9h-0.9v-2.8
							c0-0.8-0.3-1.4-1.1-1.4c-0.6,0-1,0.4-1.2,0.9c0,0.1-0.1,0.3-0.1,0.4v2.9H149V65.7z"/>
						<path class="st1" d="M155.5,63c0,0.3-0.2,0.5-0.6,0.5c-0.3,0-0.5-0.2-0.5-0.5c0-0.3,0.2-0.5,0.5-0.5
							C155.3,62.5,155.5,62.7,155.5,63z M154.5,69.1v-4.8h0.9v4.8H154.5z"/>
						<path class="st1" d="M157.2,64.4l0.7,1c0.2,0.3,0.3,0.5,0.5,0.8h0c0.2-0.3,0.3-0.5,0.5-0.8l0.7-1h0.9l-1.6,2.3l1.7,2.5h-1
							l-0.7-1.1c-0.2-0.3-0.3-0.5-0.5-0.8h0c-0.2,0.3-0.3,0.5-0.5,0.8l-0.7,1.1h-1l1.7-2.4l-1.6-2.3H157.2z"/>
					</g>
					<g>
						<path class="st2" d="M128.9,62.5c0.4-0.1,1-0.1,1.6-0.1c0.8,0,1.5,0.2,1.9,0.6c0.4,0.3,0.6,0.8,0.6,1.4c0,0.6-0.2,1.1-0.5,1.4
							c-0.5,0.5-1.2,0.7-2,0.7c-0.3,0-0.5,0-0.7-0.1V69h-0.9V62.5z M129.7,65.7c0.2,0,0.4,0.1,0.7,0.1c1,0,1.7-0.5,1.7-1.4
							c0-0.9-0.6-1.3-1.6-1.3c-0.4,0-0.7,0-0.8,0.1V65.7z"/>
						<path class="st2" d="M134,62h0.9v3h0c0.1-0.2,0.4-0.5,0.6-0.6c0.3-0.1,0.6-0.2,0.9-0.2c0.6,0,1.7,0.4,1.7,2V69h-0.9v-2.7
							c0-0.8-0.3-1.4-1.1-1.4c-0.6,0-1,0.4-1.2,0.9c0,0.1-0.1,0.2-0.1,0.4V69H134V62z"/>
						<path class="st2" d="M143.9,66.6c0,1.8-1.2,2.5-2.4,2.5c-1.3,0-2.3-0.9-2.3-2.5c0-1.6,1-2.5,2.4-2.5
							C142.9,64.2,143.9,65.1,143.9,66.6z M140.1,66.7c0,1,0.6,1.8,1.5,1.8c0.8,0,1.5-0.8,1.5-1.9c0-0.8-0.4-1.8-1.4-1.8
							C140.5,64.8,140.1,65.8,140.1,66.7z"/>
						<path class="st2" d="M145.4,66.8c0,1.2,0.8,1.7,1.6,1.7c0.6,0,1-0.1,1.3-0.2l0.1,0.6c-0.3,0.1-0.8,0.3-1.6,0.3
							c-1.5,0-2.4-1-2.4-2.4c0-1.4,0.8-2.6,2.2-2.6c1.6,0,2,1.4,2,2.3c0,0.2,0,0.3,0,0.4H145.4z M148,66.2c0-0.6-0.2-1.4-1.2-1.4
							c-0.9,0-1.3,0.8-1.3,1.4H148z"/>
						<path class="st2" d="M149.9,65.6c0-0.5,0-0.9,0-1.3h0.8l0,0.8h0c0.2-0.5,0.8-0.9,1.6-0.9c0.7,0,1.7,0.4,1.7,2V69h-0.9v-2.8
							c0-0.8-0.3-1.4-1.1-1.4c-0.6,0-1,0.4-1.2,0.9c0,0.1-0.1,0.3-0.1,0.4V69h-0.9V65.6z"/>
						<path class="st2" d="M156.4,62.9c0,0.3-0.2,0.5-0.6,0.5c-0.3,0-0.5-0.2-0.5-0.5c0-0.3,0.2-0.5,0.5-0.5
							C156.1,62.4,156.4,62.6,156.4,62.9z M155.4,69v-4.8h0.9V69H155.4z"/>
						<path class="st2" d="M158.1,64.3l0.7,1c0.2,0.3,0.3,0.5,0.5,0.8h0c0.2-0.3,0.3-0.5,0.5-0.8l0.7-1h0.9l-1.6,2.3l1.7,2.5h-1
							l-0.7-1.1c-0.2-0.3-0.3-0.5-0.5-0.8h0c-0.2,0.3-0.3,0.5-0.5,0.8L158,69h-1l1.7-2.4l-1.6-2.3H158.1z"/>
					</g>
				</g>
			</g>
		</g>
	</g>
</g>
</svg>
